<svg width="146" height="37" viewBox="0 0 146 37" fill="none" xmlns="http://www.w3.org/2000/svg">
<path d="M138.663 32.477H138.393C138.344 32.477 138.297 32.4576 138.263 32.4231C138.228 32.3886 138.209 32.3418 138.209 32.293V28.193H136.877C136.828 28.193 136.781 28.1736 136.747 28.1391C136.712 28.1046 136.693 28.0578 136.693 28.009V27.763C136.693 27.7142 136.712 27.6674 136.747 27.6329C136.781 27.5984 136.828 27.579 136.877 27.579H140.177C140.226 27.579 140.272 27.5984 140.307 27.6329C140.341 27.6674 140.361 27.7142 140.361 27.763V28.009C140.361 28.0578 140.341 28.1046 140.307 28.1391C140.272 28.1736 140.226 28.193 140.177 28.193H138.844V32.293C138.844 32.3173 138.839 32.3414 138.83 32.3638C138.821 32.3863 138.807 32.4066 138.79 32.4238C138.773 32.4409 138.752 32.4544 138.73 32.4636C138.707 32.4727 138.683 32.4773 138.659 32.477H138.663Z" fill="#636363"/>
<path d="M145.627 32.477H145.368C145.319 32.477 145.272 32.4576 145.238 32.4231C145.203 32.3886 145.184 32.3418 145.184 32.293V28.82L143.455 31.955C143.44 31.9847 143.417 32.0097 143.388 32.0273C143.36 32.045 143.327 32.0545 143.294 32.055H143.165C143.131 32.0545 143.099 32.045 143.07 32.0273C143.042 32.0097 143.019 31.9847 143.004 31.955L141.271 28.82V32.295C141.271 32.3438 141.251 32.3906 141.217 32.4251C141.182 32.4596 141.136 32.479 141.087 32.479H140.836C140.787 32.479 140.74 32.4596 140.706 32.4251C140.671 32.3906 140.652 32.3438 140.652 32.295V27.767C140.652 27.7182 140.671 27.6714 140.706 27.6369C140.74 27.6024 140.787 27.583 140.836 27.583H141.188C141.221 27.5827 141.253 27.5913 141.282 27.6079C141.31 27.6244 141.334 27.6483 141.35 27.677L143.228 31.087L145.111 27.677C145.127 27.6484 145.15 27.6245 145.178 27.608C145.207 27.5914 145.239 27.5828 145.272 27.583H145.626C145.675 27.583 145.721 27.6024 145.756 27.6369C145.79 27.6714 145.81 27.7182 145.81 27.767V32.297C145.809 32.3449 145.789 32.3906 145.755 32.4242C145.721 32.4578 145.675 32.4768 145.627 32.477V32.477Z" fill="#636363"/>
<path d="M56.1289 15.194C53.0449 15.117 51.2099 15.543 49.1539 17.382V15.536C49.1539 15.1382 48.9958 14.7567 48.7145 14.4754C48.4332 14.1941 48.0517 14.036 47.6539 14.036C47.256 14.036 46.8745 14.1941 46.5932 14.4754C46.3119 14.7567 46.1539 15.1382 46.1539 15.536V15.536V32.07C46.1539 32.1986 46.205 32.322 46.2959 32.413C46.3869 32.5039 46.5102 32.555 46.6389 32.555H48.6579C48.7865 32.555 48.9099 32.5039 49.0008 32.413C49.0918 32.322 49.1429 32.1986 49.1429 32.07V20.233C49.9038 19.4601 50.8122 18.8479 51.8142 18.4328C52.8161 18.0176 53.8913 17.8079 54.9759 17.816C57.3759 17.816 58.8869 19.45 58.8869 22.344V32.072C58.8869 32.2003 58.9377 32.3234 59.0282 32.4143C59.1187 32.5052 59.2416 32.5565 59.3699 32.557H61.3699C61.4981 32.5565 61.621 32.5052 61.7115 32.4143C61.8021 32.3234 61.8529 32.2003 61.8529 32.072V21.458C61.8689 17.408 59.5339 15.282 56.1289 15.194Z" fill="#848484"/>
<path d="M76.8778 12.54C78.7528 12.4929 80.5756 13.1595 81.9778 14.405C82.3075 14.6949 82.7196 14.8745 83.1564 14.9186C83.5932 14.9627 84.0329 14.8691 84.4138 14.651H84.4268C84.7301 14.4788 84.9863 14.2346 85.1729 13.94C85.3596 13.6455 85.4709 13.3096 85.4972 12.9618C85.5235 12.6141 85.4639 12.2652 85.3236 11.946C85.1833 11.6267 84.9667 11.3468 84.6928 11.131C82.4613 9.3589 79.6954 8.39486 76.8458 8.39599C75.216 8.36307 73.596 8.65565 72.0806 9.2566C70.5652 9.85756 69.185 10.7548 68.0207 11.8958C66.8564 13.0368 65.9314 14.3987 65.3 15.9016C64.6685 17.4045 64.3433 19.0183 64.3433 20.6485C64.3433 22.2787 64.6685 23.8925 65.3 25.3954C65.9314 26.8983 66.8564 28.2602 68.0207 29.4012C69.185 30.5422 70.5652 31.4394 72.0806 32.0404C73.596 32.6413 75.216 32.9339 76.8458 32.901C79.6837 32.9011 82.4393 31.9482 84.6708 30.195C84.9461 29.98 85.1641 29.7004 85.3055 29.381C85.447 29.0617 85.5075 28.7124 85.4818 28.364C85.4561 28.0157 85.3449 27.6791 85.1581 27.384C84.9713 27.0888 84.7147 26.8443 84.4108 26.672V26.672C84.0313 26.4537 83.5931 26.3595 83.1574 26.4025C82.7217 26.4455 82.3103 26.6237 81.9808 26.912C80.5733 28.1452 78.7515 28.8007 76.8808 28.747C75.8275 28.7695 74.7811 28.5723 73.8083 28.1678C72.8355 27.7634 71.9577 27.1606 71.2308 26.398C70.4876 25.6389 69.9031 24.7392 69.5116 23.7516C69.1201 22.764 68.9295 21.7082 68.9508 20.646C68.9267 19.5887 69.1162 18.5374 69.508 17.555C69.8997 16.5727 70.4857 15.6795 71.2308 14.929C71.9497 14.1542 72.8247 13.5406 73.7981 13.1288C74.7715 12.717 75.8212 12.5163 76.8778 12.54Z" fill="#636363"/>
<path d="M109.303 28.11L109.266 28.09C108.966 27.9174 108.62 27.8395 108.275 27.8665C107.93 27.8934 107.601 28.024 107.331 28.241C106.551 28.8538 105.616 29.2372 104.631 29.3482C103.645 29.4592 102.649 29.2934 101.752 28.8694C100.856 28.4454 100.095 27.78 99.5558 26.9479C99.0164 26.1157 98.7197 25.1498 98.6987 24.1583C98.6778 23.1669 98.9336 22.1893 99.4373 21.3351C99.9411 20.4809 100.673 19.784 101.551 19.3226C102.428 18.8612 103.417 18.6534 104.406 18.7228C105.396 18.7921 106.346 19.1357 107.151 19.715C107.423 19.9298 107.753 20.0601 108.099 20.0898C108.445 20.1195 108.792 20.0472 109.097 19.882L109.121 19.869C109.376 19.7276 109.592 19.5242 109.748 19.2775C109.904 19.0308 109.996 18.7488 110.014 18.4574C110.032 18.166 109.977 17.8747 109.853 17.6104C109.729 17.3461 109.541 17.1172 109.305 16.945C107.714 15.8026 105.805 15.1881 103.846 15.188C102.639 15.1625 101.44 15.3784 100.318 15.8228C99.1958 16.2672 98.1738 16.9313 97.3119 17.776C96.4618 18.5832 95.7849 19.5549 95.3223 20.6321C94.8597 21.7092 94.6211 22.8692 94.6211 24.0415C94.6211 25.2138 94.8597 26.3738 95.3223 27.4509C95.7849 28.5281 96.4618 29.4998 97.3119 30.307C98.174 31.1513 99.196 31.8149 100.318 32.259C101.44 32.703 102.639 32.9186 103.846 32.893C105.901 32.9001 107.9 32.2298 109.536 30.986C109.76 30.809 109.936 30.5796 110.05 30.3182C110.164 30.0567 110.212 29.7712 110.189 29.4869C110.167 29.2025 110.074 28.9282 109.92 28.688C109.766 28.4479 109.556 28.2493 109.307 28.11H109.303Z" fill="#636363"/>
<path d="M128.125 15.194C126.964 15.1954 125.815 15.4256 124.744 15.8713C123.672 16.317 122.699 16.9694 121.88 17.7914C121.061 18.6134 120.412 19.5888 119.97 20.6618C119.528 21.7349 119.301 22.8845 119.304 24.045C119.289 25.2127 119.514 26.371 119.965 27.4483C120.416 28.5256 121.083 29.4989 121.925 30.308C122.757 31.1477 123.751 31.8098 124.846 32.2543C125.942 32.6988 127.116 32.9164 128.298 32.894C130.422 32.924 132.502 32.2864 134.245 31.071C134.417 30.9512 134.56 30.7939 134.663 30.6109C134.766 30.4279 134.826 30.224 134.839 30.0145C134.851 29.805 134.816 29.5953 134.736 29.4012C134.656 29.2072 134.533 29.0337 134.377 28.894L134.296 28.822C134.056 28.6126 133.752 28.491 133.435 28.4774C133.117 28.4638 132.803 28.5589 132.547 28.747C131.397 29.5307 130.029 29.9333 128.638 29.898C127.294 29.9146 125.99 29.4431 124.967 28.571C124.476 28.147 124.077 27.6262 123.796 27.0412C123.515 26.4562 123.357 25.8196 123.333 25.171H135.823C136.121 25.171 136.406 25.0527 136.617 24.8421C136.828 24.6315 136.946 24.3458 136.946 24.048C136.985 22.8922 136.794 21.7402 136.385 20.6587C135.975 19.5772 135.355 18.5878 134.56 17.748C133.729 16.8913 132.726 16.2207 131.616 15.7805C130.507 15.3402 129.317 15.1403 128.125 15.194V15.194ZM123.353 23.16C123.336 21.8576 123.834 20.6012 124.74 19.6647C125.645 18.7282 126.884 18.1873 128.186 18.16C128.843 18.1351 129.498 18.2485 130.109 18.4927C130.72 18.737 131.272 19.1067 131.731 19.578C132.19 20.0493 132.545 20.6116 132.773 21.2286C133 21.8456 133.096 22.5036 133.054 23.16H123.353Z" fill="#636363"/>
<path d="M42.0879 7.13599C41.6654 7.13599 41.2602 7.30382 40.9614 7.60257C40.6627 7.90131 40.4949 8.30649 40.4949 8.72898V32.069C40.4949 32.1327 40.5074 32.1957 40.5318 32.2546C40.5562 32.3134 40.5919 32.3669 40.6369 32.4119C40.682 32.457 40.7354 32.4927 40.7943 32.5171C40.8531 32.5414 40.9162 32.554 40.9799 32.554H43.1949C43.3235 32.554 43.4469 32.5029 43.5378 32.4119C43.6288 32.321 43.6799 32.1976 43.6799 32.069V8.72699C43.6793 8.30502 43.5114 7.9005 43.2129 7.60221C42.9145 7.30393 42.5098 7.13625 42.0879 7.13599Z" fill="#848484"/>
<path d="M90.0598 13.463C89.7875 13.4628 89.5177 13.5161 89.266 13.6201C89.0143 13.7241 88.7855 13.8767 88.5927 14.0691C88.3999 14.2615 88.247 14.49 88.1425 14.7415C88.038 14.993 87.9841 15.2627 87.9838 15.535V32.069C87.9838 32.1976 88.0349 32.321 88.1259 32.412C88.2168 32.5029 88.3402 32.554 88.4688 32.554H91.6519C91.7155 32.554 91.7786 32.5415 91.8374 32.5171C91.8963 32.4927 91.9497 32.457 91.9948 32.412C92.0398 32.3669 92.0755 32.3135 92.0999 32.2546C92.1243 32.1958 92.1368 32.1327 92.1368 32.069V15.535C92.1366 15.2626 92.0827 14.9928 91.9781 14.7413C91.8736 14.4897 91.7205 14.2611 91.5276 14.0687C91.3347 13.8763 91.1058 13.7238 90.854 13.6198C90.6021 13.5159 90.3323 13.4626 90.0598 13.463Z" fill="#636363"/>
<path d="M114.751 8.13499C114.201 8.13499 113.674 8.35316 113.284 8.74162C112.895 9.13008 112.676 9.65709 112.675 10.207C112.677 10.2923 112.685 10.3775 112.697 10.462V32.069C112.697 32.1975 112.748 32.3207 112.839 32.4116C112.93 32.5025 113.053 32.5537 113.182 32.554H116.332C116.46 32.554 116.584 32.5029 116.675 32.4119C116.766 32.321 116.817 32.1976 116.817 32.069V10.462C116.828 10.3781 116.833 10.2936 116.833 10.209C116.833 9.93604 116.779 9.66577 116.674 9.41369C116.57 9.1616 116.416 8.93265 116.223 8.73997C116.03 8.54729 115.8 8.39467 115.548 8.29085C115.295 8.18704 115.025 8.13407 114.752 8.13499H114.751Z" fill="#636363"/>
<path d="M90.0599 12.279C91.2064 12.279 92.1359 11.3513 92.1359 10.207C92.1359 9.06268 91.2064 8.13501 90.0599 8.13501C88.9133 8.13501 87.9839 9.06268 87.9839 10.207C87.9839 11.3513 88.9133 12.279 90.0599 12.279Z" fill="#636363"/>
<path d="M21.8809 17.731C21.8939 17.6492 21.8853 17.5655 21.8559 17.4881C21.8265 17.4107 21.7773 17.3424 21.7133 17.2899C21.6493 17.2374 21.5726 17.2026 21.491 17.1889C21.4093 17.1752 21.3255 17.1832 21.2479 17.212C16.5199 19.183 13.7869 24.003 13.3549 24.805C13.3144 24.8791 13.2947 24.9627 13.2979 25.047L13.6299 35.693V35.733C15.0784 36.099 16.5668 36.2841 18.0609 36.284C18.9741 36.2836 19.886 36.2147 20.7889 36.078C20.8112 35.9888 20.821 35.8969 20.8179 35.805C20.7675 29.7634 21.1227 23.7251 21.8809 17.731V17.731Z" fill="url(#paint0_linear_1_34)"/>
<path d="M18.0649 15.853C20.9235 15.853 23.2409 13.5406 23.2409 10.688C23.2409 7.83546 20.9235 5.52301 18.0649 5.52301C15.2062 5.52301 12.8889 7.83546 12.8889 10.688C12.8889 13.5406 15.2062 15.853 18.0649 15.853Z" fill="url(#paint1_linear_1_34)"/>
<path d="M31.6199 30.144L31.6969 30.058C31.8489 29.874 31.9969 29.691 32.1489 29.507L32.1599 29.492C34.2902 26.8268 35.6265 23.6153 36.0154 20.2256C36.4044 16.8359 35.8304 13.4052 34.3591 10.3267C32.8878 7.2483 30.5789 4.64673 27.697 2.82026C24.815 0.993798 21.4768 0.0163599 18.0649 0C14.665 0.0183725 11.3385 0.990657 8.46392 2.80623C5.58933 4.62181 3.28205 7.20777 1.80459 10.2699C0.327132 13.332 -0.261184 16.7474 0.106578 20.1274C0.47434 23.5074 1.78341 26.7163 3.88486 29.389L3.92486 29.439C4.02486 29.573 4.13786 29.703 4.24586 29.834L4.39286 30.007C4.49286 30.124 4.59286 30.238 4.69286 30.352C4.79286 30.466 4.87686 30.558 4.97686 30.659L4.99886 30.676C7.02232 32.8069 9.5349 34.4123 12.3189 35.353V32C9.1306 30.6452 6.50597 28.234 4.88618 25.1718C3.2664 22.1096 2.75022 18.5832 3.42441 15.1852C4.0986 11.7872 5.92206 8.72499 8.58827 6.5132C11.2545 4.30142 14.6008 3.07496 18.0649 3.04C21.6794 3.07352 25.1616 4.40453 27.877 6.79049C30.5923 9.17646 32.3601 12.4586 32.8582 16.0388C33.3563 19.619 32.5516 23.259 30.5906 26.2956C28.6296 29.3321 25.643 31.5631 22.1749 32.582V35.82C25.4411 35.0539 28.4288 33.3916 30.8019 31.02C30.8749 30.945 30.9489 30.871 31.0199 30.796C31.0909 30.721 31.2039 30.612 31.2789 30.523C31.3989 30.4 31.5079 30.271 31.6199 30.144Z" fill="url(#paint2_linear_1_34)"/>
<defs>
<linearGradient id="paint0_linear_1_34" x1="14.1049" y1="22.9511" x2="25.5536" y2="25.2663" gradientUnits="userSpaceOnUse">
<stop stop-color="#055B8F"/>
<stop offset="1" stop-color="#79CDE4"/>
</linearGradient>
<linearGradient id="paint1_linear_1_34" x1="14.4106" y1="7.03119" x2="21.7035" y2="14.3603" gradientUnits="userSpaceOnUse">
<stop stop-color="#055B8F"/>
<stop offset="1" stop-color="#79CDE4"/>
</linearGradient>
<linearGradient id="paint2_linear_1_34" x1="5.27554" y1="5.33718" x2="30.633" y2="31.1697" gradientUnits="userSpaceOnUse">
<stop stop-color="#055B8F"/>
<stop offset="1" stop-color="#79CDE4"/>
</linearGradient>
</defs>
</svg>
