<svg width="37" height="37" viewBox="0 0 37 37" fill="none" xmlns="http://www.w3.org/2000/svg">
<path d="M21.882 17.731C21.8951 17.6492 21.8865 17.5655 21.8571 17.4881C21.8277 17.4107 21.7785 17.3424 21.7145 17.2899C21.6505 17.2374 21.5738 17.2026 21.4921 17.1889C21.4105 17.1752 21.3267 17.1832 21.249 17.212C16.521 19.183 13.788 24.003 13.356 24.805C13.3156 24.8791 13.2959 24.9627 13.299 25.047L13.631 35.693V35.733C15.0796 36.099 16.5679 36.2841 18.062 36.284C18.9752 36.2836 19.8871 36.2147 20.79 36.078C20.8124 35.9888 20.8221 35.8969 20.819 35.805C20.7687 29.7634 21.1238 23.7251 21.882 17.731V17.731Z" fill="url(#paint0_linear_1_9)"/>
<path d="M18.066 15.853C20.9246 15.853 23.242 13.5406 23.242 10.688C23.242 7.83546 20.9246 5.52301 18.066 5.52301C15.2074 5.52301 12.89 7.83546 12.89 10.688C12.89 13.5406 15.2074 15.853 18.066 15.853Z" fill="url(#paint1_linear_1_9)"/>
<path d="M31.621 30.144L31.698 30.058C31.85 29.874 31.998 29.691 32.15 29.507L32.161 29.492C34.2914 26.8268 35.6276 23.6153 36.0166 20.2256C36.4056 16.8359 35.8315 13.4052 34.3602 10.3267C32.889 7.2483 30.58 4.64673 27.6981 2.82026C24.8162 0.993798 21.4779 0.0163599 18.066 0C14.6661 0.0183725 11.3397 0.990657 8.46508 2.80623C5.59049 4.62181 3.28321 7.20777 1.80575 10.2699C0.328292 13.332 -0.260025 16.7474 0.107737 20.1274C0.475499 23.5074 1.78457 26.7163 3.88602 29.389L3.92602 29.439C4.02602 29.573 4.13902 29.703 4.24702 29.834L4.39402 30.007C4.49402 30.124 4.59402 30.238 4.69402 30.352C4.79402 30.466 4.87802 30.558 4.97802 30.659L5.00002 30.676C7.02348 32.8069 9.53606 34.4123 12.32 35.353V32C9.13176 30.6452 6.50713 28.234 4.88734 25.1718C3.26756 22.1096 2.75137 18.5832 3.42557 15.1852C4.09976 11.7872 5.92322 8.72499 8.58943 6.5132C11.2556 4.30142 14.602 3.07496 18.066 3.04C21.6806 3.07352 25.1628 4.40453 27.8781 6.79049C30.5935 9.17646 32.3613 12.4586 32.8594 16.0388C33.3575 19.619 32.5527 23.259 30.5918 26.2956C28.6308 29.3321 25.6441 31.5631 22.176 32.582V35.82C25.4423 35.0539 28.43 33.3916 30.803 31.02C30.876 30.945 30.95 30.871 31.021 30.796C31.092 30.721 31.205 30.612 31.28 30.523C31.4 30.4 31.509 30.271 31.621 30.144Z" fill="url(#paint2_linear_1_9)"/>
<defs>
<linearGradient id="paint0_linear_1_9" x1="14.1061" y1="22.9511" x2="25.5547" y2="25.2663" gradientUnits="userSpaceOnUse">
<stop stop-color="#055B8F"/>
<stop offset="1" stop-color="#79CDE4"/>
</linearGradient>
<linearGradient id="paint1_linear_1_9" x1="14.4118" y1="7.03119" x2="21.7047" y2="14.3603" gradientUnits="userSpaceOnUse">
<stop stop-color="#055B8F"/>
<stop offset="1" stop-color="#79CDE4"/>
</linearGradient>
<linearGradient id="paint2_linear_1_9" x1="5.2767" y1="5.33718" x2="30.6341" y2="31.1697" gradientUnits="userSpaceOnUse">
<stop stop-color="#055B8F"/>
<stop offset="1" stop-color="#79CDE4"/>
</linearGradient>
</defs>
</svg>
